rotated_Sprint_08100001_forces_filt5Hz.mot
version=1
nRows=47
nColumns=19
inDegrees=yes
endheader
time	R_ground_force_vx	R_ground_force_vy	R_ground_force_vz	R_ground_force_px	R_ground_force_py	R_ground_force_pz	R_ground_torque_x	R_ground_torque_y	R_ground_torque_z	L_ground_force_vx	L_ground_force_vy	L_ground_force_vz	L_ground_force_px	L_ground_force_py	L_ground_force_pz	L_ground_torque_x	L_ground_torque_y	L_ground_torque_z	
0.000000	  0.000000	  0.000000	  0.000000	  0.426822	  0.000000	 -0.731509	  0.000000	  0.000000	  0.000000	-158.853290	969.395748	-15.500362	  0.914468	  0.000000	 -0.380692	  0.000000	-33.256853	  0.000000
0.000500	  0.000000	  0.000000	  0.000000	  0.429157	 -0.000000	 -0.732183	  0.000000	  0.000000	  0.000000	-158.963100	983.048525	-14.653053	  0.913676	  0.000000	 -0.380626	  0.000000	-33.021377	  0.000000
0.001000	  0.000000	  0.000000	  0.000000	  0.431493	 -0.000000	 -0.732858	  0.000000	  0.000000	  0.000000	-159.064125	996.762708	-13.811761	  0.912889	  0.000000	 -0.380559	  0.000000	-32.788450	  0.000000
0.001500	  0.000000	  0.000000	  0.000000	  0.433828	 -0.000000	 -0.733532	  0.000000	  0.000000	  0.000000	-159.156121	1010.536254	-12.976812	  0.912109	  0.000000	 -0.380491	  0.000000	-32.558114	  0.000000
0.002000	  0.000000	  0.000000	  0.000000	  0.436163	 -0.000000	 -0.734207	  0.000000	  0.000000	  0.000000	-159.238840	1024.367060	-12.148532	  0.911333	  0.000000	 -0.380423	  0.000000	-32.330410	  0.000000
0.002500	  0.000000	  0.000000	  0.000000	  0.438499	  0.000000	 -0.734881	  0.000000	  0.000000	  0.000000	-159.312021	1038.252961	-11.327246	  0.910563	  0.000000	 -0.380354	  0.000000	-32.105378	  0.000000
0.003000	  0.000000	  0.000000	  0.000000	  0.440834	  0.000000	 -0.735555	  0.000000	  0.000000	  0.000000	-159.375391	1052.191730	-10.513279	  0.909798	  0.000000	 -0.380285	  0.000000	-31.883058	  0.000000
0.003500	  0.000000	  0.000000	  0.000000	  0.443169	  0.000000	 -0.736230	  0.000000	  0.000000	  0.000000	-159.428668	1066.181078	 -9.706953	  0.909038	  0.000000	 -0.380215	  0.000000	-31.663487	  0.000000
0.004000	  0.000000	  0.000000	  0.000000	  0.445504	  0.000000	 -0.736904	  0.000000	  0.000000	  0.000000	-159.471556	1080.218649	 -8.908587	  0.908282	  0.000000	 -0.380144	  0.000000	-31.446702	  0.000000
0.004500	  0.000000	  0.000000	  0.000000	  0.447840	  0.000000	 -0.737579	  0.000000	  0.000000	  0.000000	-159.503746	1094.302025	 -8.118496	  0.907531	  0.000000	 -0.380073	  0.000000	-31.232738	  0.000000
0.005000	  0.000000	  0.000000	  0.000000	  0.450175	  0.000000	 -0.738253	  0.000000	  0.000000	  0.000000	-159.524920	1108.428720	 -7.336992	  0.906783	  0.000000	 -0.380002	  0.000000	-31.021625	  0.000000
0.005500	  0.000000	  0.000000	  0.000000	  0.452496	  0.000000	 -0.738773	  0.000000	  0.000000	  0.000000	-159.534744	1122.596183	 -6.564382	  0.906039	  0.000000	 -0.379929	  0.000000	-30.813393	  0.000000
0.006000	  0.000000	  0.000000	  0.000000	  0.454817	  0.000000	 -0.739293	  0.000000	  0.000000	  0.000000	-159.532874	1136.801796	 -5.800966	  0.905299	  0.000000	 -0.379856	  0.000000	-30.608069	  0.000000
0.006500	  0.000000	  0.000000	  0.000000	  0.457139	  0.000000	 -0.739814	  0.000000	  0.000000	  0.000000	-159.518949	1151.042869	 -5.047041	  0.904562	  0.000000	 -0.379783	  0.000000	-30.405678	  0.000000
0.007000	  0.000000	  0.000000	  0.000000	  0.459460	  0.000000	 -0.740334	  0.000000	  0.000000	  0.000000	-159.492599	1165.316647	 -4.302899	  0.903829	  0.000000	 -0.379708	  0.000000	-30.206240	  0.000000
0.007500	  0.000000	  0.000000	  0.000000	  0.461781	  0.000000	 -0.740854	  0.000000	  0.000000	  0.000000	-159.453438	1179.620304	 -3.568827	  0.903098	  0.000000	 -0.379633	  0.000000	-30.009773	  0.000000
0.008000	  0.000000	  0.000000	  0.000000	  0.464102	  0.000000	 -0.741374	  0.000000	  0.000000	  0.000000	-159.401067	1193.950940	 -2.845107	  0.902370	  0.000000	 -0.379558	  0.000000	-29.816294	  0.000000
0.008500	  0.000000	  0.000000	  0.000000	  0.466423	  0.000000	 -0.741894	  0.000000	  0.000000	  0.000000	-159.335074	1208.305588	 -2.132017	  0.901645	  0.000000	 -0.379482	  0.000000	-29.625813	  0.000000
0.009000	  0.000000	  0.000000	  0.000000	  0.468745	  0.000000	 -0.742415	  0.000000	  0.000000	  0.000000	-159.255032	1222.681204	 -1.429833	  0.900921	  0.000000	 -0.379405	  0.000000	-29.438339	  0.000000
0.009500	  0.000000	  0.000000	  0.000000	  0.471066	  0.000000	 -0.742935	  0.000000	  0.000000	  0.000000	-159.160501	1237.074672	 -0.738825	  0.900200	  0.000000	 -0.379327	  0.000000	-29.253878	  0.000000
0.010000	  0.000000	  0.000000	  0.000000	  0.473387	  0.000000	 -0.743455	  0.000000	  0.000000	  0.000000	-159.051030	1251.482804	 -0.059264	  0.899481	  0.000000	 -0.379249	  0.000000	-29.072432	  0.000000
0.010500	  0.000000	  0.000000	  0.000000	  0.475659	  0.000000	 -0.743837	  0.000000	  0.000000	  0.000000	-158.926155	1265.902333	  0.608582	  0.898763	  0.000000	 -0.379170	  0.000000	-28.894001	  0.000000
0.011000	  0.000000	  0.000000	  0.000000	  0.477930	  0.000000	 -0.744220	  0.000000	  0.000000	  0.000000	-158.785401	1280.329927	  1.264447	  0.898047	  0.000000	 -0.379090	  0.000000	-28.718580	  0.000000
0.011500	  0.000000	  0.000000	  0.000000	  0.480202	  0.000000	 -0.744602	  0.000000	  0.000000	  0.000000	-158.628284	1294.762190	  1.908062	  0.897333	  0.000000	 -0.379010	  0.000000	-28.546164	  0.000000
0.012000	  0.000000	  0.000000	  0.000000	  0.482474	  0.000000	 -0.744985	  0.000000	  0.000000	  0.000000	-158.454312	1309.195671	  2.539159	  0.896619	  0.000000	 -0.378929	  0.000000	-28.376743	  0.000000
0.012500	  0.000000	  0.000000	  0.000000	  0.484745	  0.000000	 -0.745367	  0.000000	  0.000000	  0.000000	-158.262984	1323.626871	  3.157464	  0.895907	  0.000000	 -0.378848	  0.000000	-28.210305	  0.000000
0.013000	  0.000000	  0.000000	  0.000000	  0.487017	  0.000000	 -0.745749	  0.000000	  0.000000	  0.000000	-158.053795	1338.052245	  3.762700	  0.895195	  0.000000	 -0.378765	  0.000000	-28.046835	  0.000000
0.013500	  0.000000	  0.000000	  0.000000	  0.489289	  0.000000	 -0.746132	  0.000000	  0.000000	  0.000000	-157.826236	1352.468213	  4.354583	  0.894484	  0.000000	 -0.378682	  0.000000	-27.886314	  0.000000
0.014000	  0.000000	  0.000000	  0.000000	  0.491561	  0.000000	 -0.746514	  0.000000	  0.000000	  0.000000	-157.579794	1366.871161	  4.932821	  0.893773	  0.000000	 -0.378599	  0.000000	-27.728723	  0.000000
0.014500	  0.000000	  0.000000	  0.000000	  0.493832	  0.000000	 -0.746897	  0.000000	  0.000000	  0.000000	-157.313958	1381.257450	  5.497115	  0.893062	  0.000000	 -0.378514	  0.000000	-27.574038	  0.000000
0.015000	  0.000000	  0.000000	  0.000000	  0.496104	  0.000000	 -0.747279	  0.000000	  0.000000	  0.000000	-157.028218	1395.623424	  6.047155	  0.892352	  0.000000	 -0.378429	  0.000000	-27.422232	  0.000000
0.015500	  0.000000	  0.000000	  0.000000	  0.498311	  0.000000	 -0.747536	  0.000000	  0.000000	  0.000000	-156.722068	1409.965406	  6.582624	  0.891642	  0.000000	 -0.378344	  0.000000	-27.273277	  0.000000
0.016000	  0.000000	  0.000000	  0.000000	  0.500519	  0.000000	 -0.747793	  0.000000	  0.000000	  0.000000	-156.395008	1424.279711	  7.103194	  0.890931	  0.000000	 -0.378258	  0.000000	-27.127141	  0.000000
0.016500	  0.000000	  0.000000	  0.000000	  0.502726	  0.000000	 -0.748049	  0.000000	  0.000000	  0.000000	-156.046550	1438.562639	  7.608530	  0.890220	  0.000000	 -0.378171	  0.000000	-26.983791	  0.000000
0.017000	  0.000000	  0.000000	  0.000000	  0.504934	  0.000000	 -0.748306	  0.000000	  0.000000	  0.000000	-155.676218	1452.810483	  8.098293	  0.889509	  0.000000	 -0.378084	  0.000000	-26.843189	  0.000000
0.017500	  0.000000	  0.000000	  0.000000	  0.507141	  0.000000	 -0.748563	  0.000000	  0.000000	  0.000000	-155.283552	1467.019530	  8.572138	  0.888797	  0.000000	 -0.377996	  0.000000	-26.705301	  0.000000
0.018000	  0.000000	  0.000000	  0.000000	  0.509348	  0.000000	 -0.748820	  0.000000	  0.000000	  0.000000	-154.868114	1481.186059	  9.029721	  0.888085	  0.000000	 -0.377908	  0.000000	-26.570087	  0.000000
0.018500	  0.000000	  0.000000	  0.000000	  0.511556	  0.000000	 -0.749077	  0.000000	  0.000000	  0.000000	-154.429489	1495.306347	  9.470698	  0.887372	  0.000000	 -0.377819	  0.000000	-26.437510	  0.000000
0.019000	  0.000000	  0.000000	  0.000000	  0.513763	  0.000000	 -0.749333	  0.000000	  0.000000	  0.000000	-153.967290	1509.376670	  9.894732	  0.886658	  0.000000	 -0.377730	  0.000000	-26.307528	  0.000000
0.019500	  0.000000	  0.000000	  0.000000	  0.515971	  0.000000	 -0.749590	  0.000000	  0.000000	  0.000000	-153.481158	1523.393304	 10.301487	  0.885943	  0.000000	 -0.377640	  0.000000	-26.180099	  0.000000
0.020000	  0.000000	  0.000000	  0.000000	  0.518178	  0.000000	 -0.749847	  0.000000	  0.000000	  0.000000	-152.970769	1537.352524	 10.690637	  0.885227	  0.000000	 -0.377550	  0.000000	-26.055178	  0.000000
0.020500	  0.000000	  0.000000	  0.000000	  0.520273	  0.000000	 -0.749981	  0.000000	  0.000000	  0.000000	-152.435829	1551.250606	 11.061867	  0.884509	  0.000000	 -0.377460	  0.000000	-25.932714	  0.000000
0.021000	  0.000000	  0.000000	  0.000000	  0.522368	  0.000000	 -0.750115	  0.000000	  0.000000	  0.000000	-151.876081	1565.083824	 11.414870	  0.883791	  0.000000	 -0.377370	  0.000000	-25.812653	  0.000000
0.021500	  0.000000	  0.000000	  0.000000	  0.524463	  0.000000	 -0.750249	  0.000000	  0.000000	  0.000000	-151.291301	1578.848450	 11.749352	  0.883071	  0.000000	 -0.377279	  0.000000	-25.694933	  0.000000
0.022000	  0.000000	  0.000000	  0.000000	  0.526558	  0.000000	 -0.750383	  0.000000	  0.000000	  0.000000	-150.681298	1592.540749	 12.065035	  0.882349	  0.000000	 -0.377188	  0.000000	-25.579487	  0.000000
0.022500	  0.000000	  0.000000	  0.000000	  0.528653	  0.000000	 -0.750517	  0.000000	  0.000000	  0.000000	-150.045914	1606.156983	 12.361658	  0.881626	  0.000000	 -0.377096	  0.000000	-25.466237	  0.000000
0.023000	  0.000000	  0.000000	  0.000000	  0.530749	  0.000000	 -0.750651	  0.000000	  0.000000	  0.000000	-149.385019	1619.693402	 12.638973	  0.880901	  0.000000	 -0.377005	  0.000000	-25.355101	  0.000000
